# xmcd
#
# Track frame offsets:
#	150
#	27946
#	49998
#	69036
#	81154
#
# Disc length: 1310 seconds
#
# Revision: 1
# Processed by: cddbd v1.4PL0 Copyright (c) Steve Scherf et al.
# Submitted via: EasyCDDAExtractor 6.0.0.1
#
DISCID=36051c05
DTITLE=Joe Mora - Manny
DYEAR=2000
DGENRE=Slow Rock
TTITLE0=Traveling Riverside Blues
TTITLE1=Sweet Virginia
TTITLE2=While it lasted
TTITLE3=Cry Baby Cry
TTITLE4=Dancing Days
EXTD=
EXTT0=
EXTT1=
EXTT2=
EXTT3=
EXTT4=
PLAYORDER=
